Coordinates																							
version=1																							
nRows=19																							
nColumns=24																							
inDegrees=yes																							
																							
"Units are S.I. units (second, meters, Newtons, ...)"																							
"If the header above contains a line with 'inDegrees', this indicates whether rotational values are in degrees (yes) or radians (no)."																							
																							
endheader																							
time	pelvis_tilt	pelvis_list	pelvis_rotation	pelvis_tx	pelvis_ty	pelvis_tz	hip_flexion_r	hip_adduction_r	hip_rotation_r	knee_flex_r	ankle_angle_r	subtalar_angle_r	mtp_angle_r	hip_flexion_l	hip_adduction_l	hip_rotation_l	knee_flex_l	ankle_angle_l	subtalar_angle_l	mtp_angle_l	lumbar_extension	lumbar_bending	lumbar_rotation
92.5	-4.03063337	-5.97186168	-0.62374718	1.3268259	0.9557274	-0.5891375	15.46444553	10.46141339	5.27233332	-42.16790779	30.41017678	-19.4236593	0	-14.41692993	-5.93199739	0.26493212	-30.1649073	11.76743359	-17.64356243	0	-29.35244228	7.30632997	-3.05239955
92.51	-3.98682886	-5.76740257	-0.50994392	1.32717001	0.95782053	-0.58681044	14.46771325	10.45042877	5.64248824	-41.11502292	30.15936994	-19.83807571	0	-12.82036424	-6.02433971	0.10198605	-33.43736205	10.18130009	-17.12506122	0	-29.44428343	7.08588719	-2.77723
92.52	-3.95037688	-5.5203657	-0.45395567	1.32724964	0.95980145	-0.58454898	13.51167067	10.41431169	6.10626141	-40.11575178	29.80699393	-20.4637988	0	-11.08504307	-6.12647206	-0.29059269	-36.90517091	8.89470574	-16.22336019	0	-29.55164199	6.79450485	-2.52941432
92.53	-3.83035535	-5.3223938	-0.27112623	1.32733787	0.96192673	-0.58248098	12.41820734	10.36303945	6.38402318	-38.94807388	29.52537126	-20.98529233	0	-9.4402101	-6.23670691	-0.3363677	-40.25899947	7.03698593	-15.9520302	0	-29.74972547	6.58341221	-2.3183325
92.54	-3.72163733	-5.03517141	-0.23521345	1.32735866	0.96387261	-0.58033108	11.36852278	10.23415017	6.81508011	-37.86900619	29.25552859	-21.46708844	0	-7.82816672	-6.26741835	-0.61977139	-43.47738916	5.12590393	-15.64632617	0	-29.92398333	6.22252769	-2.06739698
92.55	-3.59697895	-4.77225817	-0.19219401	1.32715681	0.96576832	-0.57833197	10.30257916	10.08556251	7.15923744	-36.79224607	29.00592388	-21.77697002	0	-6.19826409	-6.11821608	-0.42961498	-46.60334492	2.69457977	-16.28875666	0	-30.13210081	5.88162415	-1.84256467
92.56	-3.40429173	-4.4615198	-0.15038548	1.32692222	0.9676734	-0.5764759	9.19293282	9.83742039	7.40561678	-35.76464065	28.87336009	-21.86168469	0	-4.69371532	-6.02860786	-0.53799807	-49.48296385	0.52505854	-16.35017152	0	-30.39032832	5.49704409	-1.64205255
92.57	-3.2103914	-4.17932943	-0.1103123	1.32657757	0.96938516	-0.57469123	8.12296075	9.62921494	7.68708611	-34.8148596	28.71777184	-22.06636831	0	-3.22319862	-5.84095611	-0.3721214	-52.23367595	-0.24419122	-16.3134711	0	-30.6555404	5.14027469	-1.42688452
92.58	-2.99354316	-3.91437255	-0.01616249	1.32622185	0.97095638	-0.57304302	7.01348016	9.41551079	7.85062284	-33.79635992	28.62362059	-22.22153897	0	-1.87355863	-5.71115845	-0.24942229	-54.77031887	0.69994937	-15.40228352	0	-30.9112605	4.81689913	-1.30833835
92.59	-2.78157993	-3.64612608	0.02005437	1.3256512	0.97250682	-0.57153453	5.93168796	9.16995391	8.02614259	-32.80965239	28.54365906	-22.26479553	0	-0.54993385	-5.55427401	-0.19127714	-57.12157015	2.37391587	-14.32213335	0	-31.16507774	4.48246421	-1.05936741
92.6	-2.59041039	-3.40950842	0.07533896	1.3250553	0.97388341	-0.56998822	4.83936294	8.96777088	8.23537712	-31.75029534	28.4390228	-22.36000577	0	0.78958187	-5.45308333	-0.15708454	-59.29257333	4.00044969	-13.44457532	0	-31.37509038	4.1743968	-0.86112011
92.61	-2.45701465	-3.19539633	0.1239524	1.32431984	0.97516815	-0.56853765	3.86643117	8.77310109	8.34520371	-30.73215384	28.27861708	-22.48277925	0	2.20561776	-5.40690528	-0.20094153	-61.29284135	5.50016217	-12.74062857	0	-31.53070082	3.89646981	-0.64923279
92.62	-2.38837895	-3.02705113	0.16716007	1.32357237	0.97630155	-0.56708799	2.97548325	8.64200376	8.53254307	-29.75456027	28.05634542	-22.67694554	0	3.6540504	-5.34943617	-0.17326954	-63.11434971	6.76908093	-12.55018416	0	-31.6125441	3.66220799	-0.40851992
92.63	-2.31126092	-2.8599431	0.18306714	1.32270429	0.9773865	-0.56576077	2.02322705	8.4922581	8.75930002	-28.63175771	27.81591039	-22.87463689	0	5.07309282	-5.21178909	-0.07527263	-64.74277881	7.99480975	-12.71405973	0	-31.69942687	3.43247054	-0.12783613
92.64	-2.24236703	-2.60688047	0.13401654	1.32168373	0.97830599	-0.56447609	1.19609155	8.28978838	9.13202955	-27.74293156	27.59190401	-23.26724632	0	6.45991913	-5.07856876	-0.21733488	-66.17370509	9.28739944	-12.65195601	0	-31.78312544	3.08724585	0.14006561
92.65	-2.21421129	-2.41260149	0.10257763	1.32065314	0.97904704	-0.5632279	0.33852328	8.08743432	9.35713322	-26.77071647	27.56107797	-23.21465511	0	7.88203201	-4.92415709	-0.18302281	-67.43934958	10.51145948	-12.68492175	0	-31.81055952	2.81427461	0.39603343
92.66	-2.17125254	-2.21804432	-0.00594798	1.31972254	0.97983186	-0.56199256	-0.48668461	7.87379924	9.54482149	-25.86762059	27.42842811	-23.18106784	0	9.22712278	-4.79354666	-0.27477967	-68.51975373	11.59952168	-12.66548685	0	-31.85344554	2.51539197	0.72157177
92.67	-2.09112284	-2.01172067	-0.15393775	1.31882703	0.98063509	-0.56075346	-1.36287849	7.65286506	9.87049022	-24.93566053	27.23254499	-23.29783036	0	10.52985078	-4.71399149	-0.45081605	-69.43389462	12.592596	-12.33393797	0	-31.9317064	2.19060008	1.06001338
92.68	-2.0540109	-1.80523137	-0.31898481	1.31782953	0.98128011	-0.55962268	-2.18379501	7.3885348	10.09567737	-23.96785594	27.14511626	-23.20729073	0	11.84813502	-4.58700272	-0.58378252	-70.18634845	14.00690983	-11.71475921	0	-31.96628727	1.86272451	1.39561852
